<mxfile host="app.diagrams.net" modified="2023-04-11T23:40:00.165Z" agent="Mozilla/5.0 (Windows NT 10.0; Win64; x64) AppleWebKit/537.36 (KHTML, like Gecko) Chrome/111.0.0.0 Safari/537.36" etag="BQosZ79CIX8VHccRi0mh" version="21.1.5" type="github">
  <diagram name="Página-1" id="6OOLw8EfT3jLfe9alb_a">
    <mxGraphModel dx="1434" dy="796" grid="1" gridSize="10" guides="1" tooltips="1" connect="1" arrows="1" fold="1" page="1" pageScale="1" pageWidth="827" pageHeight="1169" math="0" shadow="0">
      <root>
        <mxCell id="0" />
        <mxCell id="1" parent="0" />
        <mxCell id="XIJPqJGX65f2xvQ2jzMC-1" value="Manter Frota de Carros&lt;br&gt;" style="ellipse;whiteSpace=wrap;html=1;" vertex="1" parent="1">
          <mxGeometry x="240" y="60" width="140" height="70" as="geometry" />
        </mxCell>
        <mxCell id="XIJPqJGX65f2xvQ2jzMC-2" value="Manter vistoria dos veiculo&lt;br&gt;" style="ellipse;whiteSpace=wrap;html=1;" vertex="1" parent="1">
          <mxGeometry x="240" y="350" width="140" height="70" as="geometry" />
        </mxCell>
        <mxCell id="XIJPqJGX65f2xvQ2jzMC-3" value="" style="ellipse;whiteSpace=wrap;html=1;" vertex="1" parent="1">
          <mxGeometry x="490" y="360" width="140" height="70" as="geometry" />
        </mxCell>
        <mxCell id="XIJPqJGX65f2xvQ2jzMC-4" value="Manter Marcas e Modelos&lt;br&gt;" style="ellipse;whiteSpace=wrap;html=1;" vertex="1" parent="1">
          <mxGeometry x="230" y="160" width="140" height="70" as="geometry" />
        </mxCell>
        <mxCell id="XIJPqJGX65f2xvQ2jzMC-5" value="Registrar manutenção do veiculo&lt;br&gt;" style="ellipse;whiteSpace=wrap;html=1;" vertex="1" parent="1">
          <mxGeometry x="240" y="250" width="140" height="70" as="geometry" />
        </mxCell>
        <mxCell id="XIJPqJGX65f2xvQ2jzMC-6" value="Loja&lt;br&gt;" style="shape=umlActor;html=1;verticalLabelPosition=bottom;verticalAlign=top;align=center;" vertex="1" parent="1">
          <mxGeometry x="70" y="110" width="110" height="170" as="geometry" />
        </mxCell>
        <mxCell id="XIJPqJGX65f2xvQ2jzMC-7" value="Cliente&lt;br&gt;" style="shape=umlActor;html=1;verticalLabelPosition=bottom;verticalAlign=top;align=center;" vertex="1" parent="1">
          <mxGeometry x="670" y="65" width="30" height="60" as="geometry" />
        </mxCell>
        <mxCell id="XIJPqJGX65f2xvQ2jzMC-8" value="Registrar Aluguel de Carros" style="ellipse;whiteSpace=wrap;html=1;" vertex="1" parent="1">
          <mxGeometry x="480" y="65" width="140" height="70" as="geometry" />
        </mxCell>
        <mxCell id="XIJPqJGX65f2xvQ2jzMC-9" value="Realizar Cadastro" style="ellipse;whiteSpace=wrap;html=1;" vertex="1" parent="1">
          <mxGeometry x="480" y="160" width="140" height="70" as="geometry" />
        </mxCell>
        <mxCell id="XIJPqJGX65f2xvQ2jzMC-10" value="Alterar Cadastro" style="ellipse;whiteSpace=wrap;html=1;" vertex="1" parent="1">
          <mxGeometry x="490" y="260" width="140" height="70" as="geometry" />
        </mxCell>
      </root>
    </mxGraphModel>
  </diagram>
</mxfile>
